<?xml version="1.0" encoding="UTF-8"?>
<svg xmlns="http://www.w3.org/2000/svg" xmlns:xlink="http://www.w3.org/1999/xlink" width="2251" height="2326" viewBox="0 0 2251 2326">
<path fill-rule="nonzero" fill="rgb(0%, 0%, 0%)" fill-opacity="1" d="M 1946.671875 1.859375 C 1945.769531 3.160156 1943.660156 17.398438 1941.859375 33.71875 C 1909.949219 333.941406 1765.480469 681.308594 1512.660156 1064.941406 C 1463.890625 1138.769531 1382.328125 1254.820312 1380.519531 1253.011719 C 1379.921875 1252.488281 1371.191406 1224.769531 1361.261719 1191.359375 C 1268.261719 879.21875 1111.441406 493.511719 1010.921875 328.769531 C 951.625 231.621094 916.410156 194.589844 859.824219 170.230469 C 786.683594 138.371094 681.941406 148.210938 590.746094 195.621094 C 562.753906 210.121094 524.226562 234.988281 524.226562 238.878906 C 524.226562 240.179688 530.246094 247.171875 537.773438 253.898438 C 545.296875 260.640625 551.316406 268.929688 551.316406 272.03125 C 551.316406 275.140625 559.441406 285.5 570.277344 296.121094 C 655.757812 378.761719 735.214844 487.03125 816.480469 630.539062 C 943.496094 855.390625 1045.230469 1110.539062 1106.328125 1357.140625 C 1117.460938 1401.695312 1138.230469 1497.796875 1138.230469 1504.273438 C 1138.230469 1506.085938 1126.800781 1521.628906 1112.351562 1538.722656 C 864.339844 1836.097656 611.511719 1996.699219 343.335938 2027.007812 C 287.054688 2033.222656 191.039062 2030.894531 147.699219 2022.085938 C 115.792969 2015.609375 73.054688 2001.878906 54.394531 1992.039062 C 48.675781 1988.929688 42.65625 1986.597656 40.546875 1986.597656 C 36.636719 1986.597656 19.179688 2030.375 9.546875 2064.308594 C 0.214844 2096.171875 -1.890625 2152.898438 4.730469 2179.0625 C 12.554688 2208.851562 44.160156 2257.550781 71.25 2280.863281 C 120.609375 2323.605469 227.457031 2337.074219 345.445312 2315.316406 C 535.664062 2280.085938 778.257812 2141.242188 1034.390625 1920.542969 C 1393.769531 1611.511719 1764.578125 1146.539062 2064.960938 629.25 C 2146.21875 488.851562 2188.058594 407.25 2218.460938 328.769531 C 2253.980469 237.839844 2259.699219 186.558594 2238.628906 149.25 C 2226.589844 128.011719 2204.609375 96.148438 2195.890625 87.078125 C 2163.378906 53.410156 2094.160156 24.910156 2006.570312 9.371094 C 1954.800781 0.0507812 1948.480469 -0.730469 1946.671875 1.859375 Z M 1946.671875 1.859375 "/>
</svg>
